<?xml version="1.0" encoding="UTF-8"?>
<svg xmlns="http://www.w3.org/2000/svg" width="70" height="70" viewBox="0 0 70 70" fill="none">
  <rect x="0.5" y="0.5" width="69" height="69" rx="34.5" stroke="#335980"></rect>
  <path d="M34.5985 31.9307V27.1438H35.9991C36.091 27.1438 36.1821 27.1253 36.267 27.0894C36.3519 27.0535 36.429 27.0008 36.494 26.9344C36.5589 26.8681 36.6104 26.7893 36.6455 26.7026C36.6806 26.6159 36.6986 26.523 36.6984 26.4292V21.4288C36.6984 21.2396 36.6248 21.0581 36.4936 20.9242C36.3625 20.7904 36.1846 20.7152 35.9991 20.7152H21.9996C21.8142 20.7152 21.6363 20.7904 21.5051 20.9242C21.374 21.0581 21.3003 21.2396 21.3003 21.4288V26.4292C21.3002 26.523 21.3182 26.6159 21.3532 26.7026C21.3883 26.7893 21.4398 26.8681 21.5048 26.9344C21.5697 27.0008 21.6469 27.0535 21.7318 27.0894C21.8167 27.1253 21.9077 27.1438 21.9996 27.1438H23.4003V31.9307C22.3472 32.3442 21.3966 32.99 20.6167 33.8221C19.8367 34.6542 19.2466 35.6519 18.8886 36.7438C18.8533 36.8513 18.8436 36.9658 18.8602 37.0779C18.8769 37.19 18.9194 37.2964 18.9843 37.3884C19.0492 37.4804 19.1347 37.5553 19.2336 37.607C19.3325 37.6586 19.442 37.6856 19.5531 37.6855C19.7 37.6852 19.8431 37.6378 19.9622 37.5499C20.0813 37.462 20.1702 37.3381 20.2165 37.1958C20.5299 36.2346 21.064 35.3639 21.7743 34.6562C22.4846 33.9486 23.3504 33.4245 24.2995 33.1277C24.4441 33.0835 24.5709 32.993 24.6612 32.8696C24.7515 32.7462 24.8005 32.5964 24.801 32.4424V27.1428H33.2009V32.4424C33.2009 32.5959 33.2493 32.7454 33.3391 32.8687C33.4288 32.9919 33.5551 33.0824 33.6992 33.1267C34.9687 33.523 36.0807 34.3234 36.8725 35.4108C37.6644 36.4982 38.0945 37.8155 38.1001 39.1702V52.2681C38.1001 52.6138 37.9655 52.9454 37.7259 53.1899C37.4863 53.4344 37.1614 53.5718 36.8225 53.5718H21.1773C20.8384 53.5718 20.5135 53.4344 20.2738 53.1899C20.0342 52.9454 19.8996 52.6138 19.8996 52.2681V42.6848C19.8996 42.4956 19.826 42.314 19.6948 42.1802C19.5637 42.0464 19.3858 41.9712 19.2003 41.9712C19.1084 41.9711 19.0174 41.9894 18.9324 42.0252C18.8474 42.061 18.7702 42.1136 18.7052 42.1799C18.6401 42.2461 18.5885 42.3248 18.5533 42.4115C18.5181 42.4981 18.5 42.591 18.5 42.6848V52.2681C18.5 52.9926 18.7821 53.6875 19.2842 54.1998C19.7862 54.7122 20.4672 55 21.1773 55H36.8225C37.5326 55 38.2135 54.7122 38.7156 54.1998C39.2177 53.6875 39.4998 52.9926 39.4998 52.2681V39.1702C39.4926 37.6001 39.0208 36.0689 38.1462 34.7771C37.2716 33.4853 36.035 32.4932 34.5985 31.9307ZM22.7041 25.7145V22.1434H24.0996V22.857C24.0996 23.0466 24.1734 23.2283 24.3047 23.3624C24.4361 23.4964 24.6142 23.5717 24.7999 23.5717C24.9857 23.5717 25.1638 23.4964 25.2951 23.3624C25.4265 23.2283 25.5003 23.0466 25.5003 22.857V22.1434H26.1996V22.857C26.1996 23.0466 26.2734 23.2283 26.4047 23.3624C26.536 23.4964 26.7142 23.5717 26.8999 23.5717C27.0856 23.5717 27.2638 23.4964 27.3951 23.3624C27.5265 23.2283 27.6002 23.0466 27.6002 22.857V22.1434H28.2996V22.857C28.2996 23.0466 28.3733 23.2283 28.5047 23.3624C28.636 23.4964 28.8141 23.5717 28.9999 23.5717C29.1856 23.5717 29.3638 23.4964 29.4951 23.3624C29.6264 23.2283 29.7002 23.0466 29.7002 22.857V22.1434H30.3995V22.857C30.3995 23.0466 30.4733 23.2283 30.6047 23.3624C30.736 23.4964 30.9141 23.5717 31.0999 23.5717C31.2856 23.5717 31.4637 23.4964 31.5951 23.3624C31.7264 23.2283 31.8002 23.0466 31.8002 22.857V22.1434H32.4995V22.857C32.4995 23.0466 32.5733 23.2283 32.7046 23.3624C32.836 23.4964 33.0141 23.5717 33.1998 23.5717C33.3856 23.5717 33.5637 23.4964 33.6951 23.3624C33.8264 23.2283 33.9002 23.0466 33.9002 22.857V22.1434H35.2998V25.7145H22.7041Z" fill="#335980"></path>
  <path d="M26.3493 42.4002C25.9133 42.2518 25.453 42.1924 24.9946 42.2256C24.5362 42.2587 24.0886 42.3837 23.6776 42.5934C23.2665 42.8031 22.9 43.0934 22.5988 43.4476C22.2977 43.8019 22.068 44.2133 21.9227 44.6582L21.0378 47.3692C20.8921 47.814 20.8337 48.2838 20.8659 48.7517C20.8982 49.2196 21.0204 49.6764 21.2256 50.0961C21.4309 50.5158 21.7151 50.8901 22.0621 51.1977C22.4091 51.5053 22.8121 51.7401 23.248 51.8888C23.684 52.0374 24.1443 52.097 24.6029 52.0642C25.0614 52.0313 25.509 51.9066 25.9203 51.6971C26.3316 51.4877 26.6984 51.1977 26.9999 50.8436C27.3013 50.4895 27.5314 50.0783 27.6771 49.6334L28.562 46.913C28.7078 46.4682 28.7662 45.9984 28.7338 45.5305C28.7014 45.0626 28.579 44.6059 28.3735 44.1863C28.168 43.7668 27.8834 43.3927 27.5361 43.0855C27.1887 42.7783 26.7854 42.544 26.3493 42.396V42.4002ZM27.2352 46.4652L26.3493 49.1762C26.1732 49.7154 25.7944 50.1611 25.2963 50.4153C24.7981 50.6695 24.2214 50.7114 23.693 50.5317C23.1646 50.352 22.7278 49.9655 22.4787 49.4572C22.2296 48.9489 22.1886 48.3604 22.3647 47.8212L23.2506 45.1102C23.4273 44.571 23.8068 44.1255 24.3054 43.8718C24.804 43.6181 25.381 43.5769 25.9094 43.7573C26.4378 43.9377 26.8743 44.3248 27.123 44.8336C27.3716 45.3425 27.412 45.9312 27.2352 46.4704V46.4652Z" fill="#335980"></path>
  <path d="M25.7802 44.9428C25.6321 44.9428 25.4874 44.9876 25.3643 45.0715C25.2412 45.1554 25.1453 45.2747 25.0886 45.4143C25.032 45.5539 25.0172 45.7074 25.046 45.8556C25.0749 46.0038 25.1462 46.1399 25.2509 46.2467C25.3556 46.3535 25.489 46.4262 25.6342 46.4557C25.7794 46.4852 25.9299 46.4701 26.0666 46.4123C26.2034 46.3544 26.3203 46.2565 26.4026 46.1309C26.4848 46.0053 26.5287 45.8576 26.5287 45.7066C26.5287 45.6063 26.5094 45.507 26.4717 45.4143C26.4341 45.3216 26.379 45.2374 26.3095 45.1665C26.24 45.0956 26.1575 45.0393 26.0666 45.0009C25.9758 44.9625 25.8785 44.9428 25.7802 44.9428Z" fill="#335980"></path>
  <path d="M24.3795 47.0856C24.2315 47.0856 24.0868 47.1304 23.9637 47.2144C23.8406 47.2983 23.7446 47.4176 23.688 47.5571C23.6313 47.6967 23.6165 47.8503 23.6454 47.9985C23.6743 48.1466 23.7456 48.2827 23.8502 48.3895C23.9549 48.4964 24.0883 48.5691 24.2335 48.5986C24.3787 48.6281 24.5292 48.6129 24.666 48.5551C24.8027 48.4973 24.9197 48.3994 25.0019 48.2738C25.0842 48.1482 25.1281 48.0005 25.1281 47.8494C25.1281 47.6469 25.0492 47.4526 24.9088 47.3093C24.7684 47.1661 24.578 47.0856 24.3795 47.0856Z" fill="#335980"></path>
  <path d="M34.2755 37.3214C33.6772 36.5968 32.8213 36.1445 31.8962 36.0638C30.9711 35.9832 30.0524 36.2808 29.3424 36.8913C28.6323 37.5018 28.189 38.3752 28.11 39.3192C28.0309 40.2632 28.3226 41.2006 28.9209 41.9252L30.7235 44.112C31.3218 44.8367 32.1777 45.2892 33.103 45.3699C34.0282 45.4507 34.947 45.1531 35.6572 44.5426C36.3674 43.932 36.8108 43.0587 36.8899 42.1145C36.969 41.1704 36.6774 40.2329 36.0791 39.5082L34.2755 37.3214ZM34.7533 43.4476C34.3267 43.8127 33.7756 43.9904 33.2209 43.9415C32.6661 43.8927 32.153 43.6214 31.794 43.187L29.9914 41.0013C29.6391 40.5657 29.4695 40.0057 29.5196 39.4432C29.5697 38.8807 29.8354 38.3612 30.2589 37.9975C30.6825 37.6339 31.2296 37.4555 31.7813 37.5014C32.333 37.5472 32.8446 37.8134 33.205 38.2421L35.0086 40.4258C35.3668 40.8608 35.5413 41.4232 35.4936 41.9893C35.4459 42.5555 35.18 43.0792 34.7543 43.4455L34.7533 43.4476Z" fill="#335980"></path>
  <path d="M32.4452 39.5113C32.523 39.3825 32.5616 39.2331 32.556 39.0819C32.5505 38.9307 32.501 38.7846 32.414 38.6621C32.327 38.5396 32.2062 38.4462 32.0671 38.3938C31.928 38.3415 31.7768 38.3324 31.6326 38.3679C31.4885 38.4033 31.3579 38.4817 31.2575 38.593C31.157 38.7042 31.0912 38.8435 31.0684 38.993C31.0456 39.1425 31.0668 39.2955 31.1294 39.4327C31.1919 39.5699 31.293 39.685 31.4198 39.7635C31.5888 39.8678 31.7913 39.8998 31.9833 39.8526C32.1753 39.8054 32.3413 39.6827 32.4452 39.5113Z" fill="#335980"></path>
  <path d="M33.2655 40.7983C33.1393 40.7189 32.9928 40.6795 32.8446 40.6852C32.6964 40.6908 32.5532 40.7413 32.4332 40.8301C32.3132 40.9189 32.2217 41.0421 32.1704 41.1841C32.119 41.326 32.1102 41.4803 32.1449 41.6274C32.1797 41.7745 32.2564 41.9077 32.3655 42.0103C32.4745 42.1128 32.611 42.1799 32.7575 42.2032C32.904 42.2264 33.054 42.2048 33.1884 42.141C33.3229 42.0771 33.4357 41.974 33.5126 41.8446C33.6151 41.6722 33.6466 41.4655 33.6003 41.2695C33.554 41.0735 33.4336 40.9041 33.2655 40.7983Z" fill="#335980"></path>
  <path d="M50.7666 47.8547H49.3957V37.7054C49.3957 37.6116 49.3776 37.5187 49.3424 37.4321C49.3072 37.3454 49.2556 37.2667 49.1905 37.2004C49.1255 37.1341 49.0483 37.0816 48.9633 37.0458C48.8783 37.01 48.7873 36.9916 48.6954 36.9918C48.5099 36.9918 48.332 37.067 48.2009 37.2008C48.0697 37.3346 47.9961 37.5161 47.9961 37.7054V42.8543H43.792V40.7146H45.1619C45.3477 40.7178 45.5274 40.6475 45.6634 40.5183C45.7993 40.3891 45.8809 40.2112 45.891 40.0219C45.8934 39.9266 45.8772 39.8318 45.8431 39.7431C45.8091 39.6543 45.758 39.5734 45.6928 39.5051C45.6276 39.4369 45.5497 39.3826 45.4636 39.3456C45.3775 39.3085 45.2851 39.2895 45.1917 39.2895H43.7961V38.5749H45.166C45.3518 38.5781 45.5315 38.5078 45.6675 38.3786C45.8034 38.2494 45.885 38.0715 45.8951 37.8822C45.8975 37.7869 45.8813 37.6921 45.8472 37.6033C45.8132 37.5146 45.7621 37.4337 45.6969 37.3654C45.6317 37.2971 45.5538 37.2429 45.4677 37.2058C45.3816 37.1688 45.2892 37.1497 45.1958 37.1498H43.7961V36.4289H45.166C45.3518 36.4321 45.5315 36.3618 45.6675 36.2326C45.8034 36.1034 45.885 35.9255 45.8951 35.7362C45.8975 35.6409 45.8813 35.5461 45.8472 35.4573C45.8132 35.3686 45.7621 35.2877 45.6969 35.2194C45.6317 35.1511 45.5538 35.0969 45.4677 35.0598C45.3816 35.0228 45.2892 35.0037 45.1958 35.0038H43.7961V34.2891H45.166C45.3518 34.2924 45.5315 34.222 45.6675 34.0929C45.8034 33.9637 45.885 33.7858 45.8951 33.5965C45.8975 33.5012 45.8813 33.4064 45.8472 33.3176C45.8132 33.2288 45.7621 33.1479 45.6969 33.0797C45.6317 33.0114 45.5538 32.9571 45.4677 32.9201C45.3816 32.8831 45.2892 32.864 45.1958 32.864H43.7961V32.1494H45.166C45.3518 32.1527 45.5315 32.0823 45.6675 31.9531C45.8034 31.824 45.885 31.646 45.8951 31.4567C45.8975 31.3615 45.8813 31.2666 45.8472 31.1779C45.8132 31.0891 45.7621 31.0082 45.6969 30.9399C45.6317 30.8717 45.5538 30.8174 45.4677 30.7804C45.3816 30.7434 45.2892 30.7243 45.1958 30.7243H43.7961V29.2856H48.0002V34.2033C48 34.2971 48.018 34.39 48.0531 34.4767C48.0882 34.5634 48.1397 34.6422 48.2046 34.7086C48.2696 34.775 48.3467 34.8276 48.4316 34.8636C48.5165 34.8995 48.6076 34.918 48.6995 34.918C48.8852 34.918 49.0633 34.8427 49.1947 34.7087C49.326 34.5746 49.3998 34.3929 49.3998 34.2033V28.572C49.3998 28.3825 49.326 28.2007 49.1947 28.0667C49.0633 27.9327 48.8852 27.8574 48.6995 27.8574H48.0002V25.7145C48.0002 25.525 47.9264 25.3432 47.795 25.2092C47.6637 25.0752 47.4856 24.9999 47.2998 24.9999H46.5954V15.7442C46.5986 15.5546 46.5296 15.3712 46.4031 15.2325C46.2765 15.0937 46.1021 15.0105 45.9166 15.0002C45.8232 14.9978 45.7302 15.0146 45.6432 15.0494C45.5562 15.0843 45.477 15.1365 45.4101 15.2031C45.3432 15.2697 45.29 15.3493 45.2538 15.4372C45.2175 15.5251 45.1988 15.6195 45.1988 15.7149V24.9999H44.4985C44.4066 24.9999 44.3156 25.0184 44.2306 25.0543C44.1457 25.0902 44.0686 25.1429 44.0036 25.2093C43.9387 25.2757 43.8872 25.3544 43.8521 25.4411C43.817 25.5278 43.7991 25.6207 43.7992 25.7145V27.8574H43.0989C43.0069 27.8574 42.9158 27.8759 42.8308 27.9118C42.7459 27.9477 42.6687 28.0004 42.6036 28.0667C42.5386 28.1331 42.487 28.2119 42.4518 28.2986C42.4166 28.3853 42.3985 28.4782 42.3985 28.572V47.8547H41.0245C40.8389 47.8514 40.6593 47.9216 40.5234 48.0506C40.3875 48.1795 40.3058 48.3572 40.2955 48.5463C40.2933 48.6416 40.3098 48.7364 40.344 48.8251C40.3782 48.9138 40.4294 48.9946 40.4946 49.0628C40.5599 49.1311 40.6378 49.1853 40.7239 49.2224C40.8099 49.2595 40.9024 49.2786 40.9958 49.2787H45.1999V52.1446H43.8269C43.6413 52.1413 43.4617 52.2115 43.3258 52.3405C43.1898 52.4694 43.1081 52.6471 43.0978 52.8362C43.0954 52.9316 43.1117 53.0265 43.1458 53.1153C43.1799 53.2042 43.2311 53.2851 43.2964 53.3534C43.3617 53.4217 43.4397 53.4759 43.5259 53.5129C43.6121 53.5498 43.7047 53.5688 43.7982 53.5686H47.9684C48.1541 53.5719 48.3339 53.5015 48.4698 53.3724C48.6058 53.2432 48.6874 53.0652 48.6974 52.876C48.6999 52.7807 48.6836 52.6859 48.6496 52.5971C48.6155 52.5083 48.5644 52.4274 48.4992 52.3592C48.4341 52.2909 48.3561 52.2366 48.2701 52.1996C48.184 52.1626 48.0915 52.1435 47.9981 52.1435H46.5954V49.286H50.7994C50.8929 49.2861 50.9854 49.267 51.0715 49.23C51.1577 49.193 51.2357 49.1387 51.3009 49.0705C51.3662 49.0022 51.4174 48.9213 51.4516 48.8326C51.4857 48.7438 51.5021 48.649 51.4998 48.5536C51.4913 48.3625 51.4098 48.1823 51.2728 48.0517C51.1358 47.9211 50.9541 47.8504 50.7666 47.8547ZM45.1958 26.426H46.5954V27.8543H45.1958V26.426ZM45.1958 47.8547H43.7961V44.2857H45.1958V47.8547ZM47.9961 47.8547H46.5954V44.2857H47.9961V47.8547Z" fill="#335980"></path>
</svg>
